<?xml version="1.0" encoding="UTF-8" standalone="no"?>
<svg
   version="1.0"
   width="1280.000000pt"
   height="1280.000000pt"
   viewBox="0 0 1280.000000 1280.000000"
   preserveAspectRatio="xMidYMid meet"
   id="svg8"
   sodipodi:docname="trifoil.svg"
   inkscape:version="1.2.1 (9c6d41e410, 2022-07-14)"
   xmlns:inkscape="http://www.inkscape.org/namespaces/inkscape"
   xmlns:sodipodi="http://sodipodi.sourceforge.net/DTD/sodipodi-0.dtd"
   xmlns="http://www.w3.org/2000/svg"
   xmlns:svg="http://www.w3.org/2000/svg">
  <defs
     id="defs12" />
  <sodipodi:namedview
     id="namedview10"
     pagecolor="#ffffff"
     bordercolor="#666666"
     borderopacity="1.0"
     inkscape:showpageshadow="2"
     inkscape:pageopacity="0.0"
     inkscape:pagecheckerboard="0"
     inkscape:deskcolor="#d1d1d1"
     inkscape:document-units="pt"
     showgrid="false"
     inkscape:zoom="0.1284668"
     inkscape:cx="-330.82478"
     inkscape:cy="805.65564"
     inkscape:window-width="1184"
     inkscape:window-height="1052"
     inkscape:window-x="0"
     inkscape:window-y="22"
     inkscape:window-maximized="1"
     inkscape:current-layer="svg8" />
  <metadata
     id="metadata2">
Created by potrace 1.15, written by Peter Selinger 2001-2017
</metadata>
  <g
     transform="translate(0.000000,1280.000000) scale(0.100000,-0.100000)"
     fill="#000000"
     stroke="none"
     id="g6"
     style="fill:#edeb65;fill-opacity:1">
    <path
       d="M6095 12794 c-27 -2 -115 -8 -195 -14 -1261 -93 -2504 -584 -3500 -1384 -162 -130 -364 -311 -522 -469 -1205 -1203 -1878 -2826 -1878 -4527 0 -1331 414 -2627 1186 -3710 821 -1152 2011 -2008 3354 -2414 945 -285 1925 -350 2900 -191 1067 174 2100 632 2945 1308 374 299 733 659 1031 1033 1539 1932 1819 4616 713 6826 -783 1566 -2159 2738 -3824 3259 -428 134 -858 219 -1340 265 -150 14 -756 27 -870 18z m-1458 -3339 c470 -814 857 -1485 859 -1490 3 -6 -14 -22 -37 -35 -144 -80 -370 -287 -489 -445 -226 -303 -331 -593 -366 -1017 l-6 -68 -1725 0 -1725 0 6 148 c15 317 45 593 92 837 279 1440 1136 2691 2376 3466 79 49 147 88 152 86 5 -2 393 -669 863 -1482z m4547 1391 c1324 -831 2204 -2195 2415 -3746 22 -159 37 -338 47 -557 l6 -143 -1725 0 -1724 0 -7 46 c-3 26 -6 66 -6 89 0 58 -36 263 -61 349 -51 177 -137 364 -231 505 -138 206 -325 391 -523 519 -38 24 -71 46 -73 47 -2 2 1261 2196 1680 2918 21 37 42 67 46 67 4 0 74 -42 156 -94z m-2601 -3271 c485 -73 878 -447 983 -935 23 -106 26 -352 5 -455 -101 -510 -505 -894 -1014 -964 -612 -84 -1191 326 -1323 939 -26 118 -26 362 0 480 49 227 160 434 320 595 272 274 646 398 1029 340z m-977 -2784 c261 -128 502 -183 794 -183 291 0 529 54 795 183 78 38 102 46 111 36 6 -6 139 -235 296 -507 157 -272 540 -937 852 -1478 532 -921 567 -984 549 -997 -39 -29 -395 -207 -533 -265 -1331 -569 -2809 -569 -4140 0 -138 59 -494 236 -534 265 -17 13 -6 36 192 377 115 200 496 860 847 1468 654 1134 663 1150 669 1150 2 0 48 -22 102 -49z"
       id="path4"
       style="fill:#edeb65;fill-opacity:1" />
  </g>
</svg>
