<?xml version="1.0" standalone="no"?>
<!DOCTYPE svg PUBLIC "-//W3C//DTD SVG 20010904//EN"
 "http://www.w3.org/TR/2001/REC-SVG-20010904/DTD/svg10.dtd">
<svg version="1.0" xmlns="http://www.w3.org/2000/svg"
 width="300.000000pt" height="149.000000pt" viewBox="0 0 300.000000 149.000000"
 preserveAspectRatio="xMidYMid meet">

<g transform="translate(0.000000,149.000000) scale(0.100000,-0.100000)"
fill="#000000" stroke="none">
<path d="M2371 1305 c-170 -48 -304 -191 -340 -363 -64 -307 184 -593 494
-569 179 14 339 134 406 304 31 79 33 231 4 318 -42 128 -156 247 -282 295
-76 29 -207 36 -282 15z"/>
<path d="M140 905 c0 -248 1 -255 20 -255 19 0 20 7 20 154 0 85 3 162 7 172
4 11 27 -40 68 -152 90 -244 95 -241 95 80 0 249 -1 256 -20 256 -19 0 -20 -7
-21 -177 l0 -178 -66 178 c-53 142 -69 177 -84 177 -18 0 -19 -13 -19 -255z"/>
<path d="M430 924 c0 -143 4 -243 10 -255 9 -17 22 -19 100 -19 78 0 91 2 100
19 6 12 10 112 10 255 l0 236 -25 0 -25 0 0 -235 0 -235 -60 0 -60 0 0 235 0
235 -25 0 -25 0 0 -236z"/>
<path d="M737 1154 c-4 -4 -7 -116 -7 -250 0 -276 -9 -254 100 -254 101 0 100
-1 100 91 0 72 -2 79 -20 79 -18 0 -20 -7 -20 -65 l0 -66 -57 3 -58 3 -3 213
-2 212 60 0 60 0 0 -55 c0 -49 2 -55 20 -55 19 0 21 5 18 73 l-3 72 -90 3
c-50 1 -94 0 -98 -4z"/>
<path d="M1010 905 l0 -255 85 0 c78 0 85 2 85 20 0 18 -7 20 -60 20 l-60 0 0
235 0 235 -25 0 -25 0 0 -255z"/>
<path d="M1240 905 l0 -255 85 0 c78 0 85 2 85 20 0 18 -7 20 -60 20 l-60 0 0
100 0 100 50 0 c43 0 50 3 50 20 0 17 -7 20 -50 20 l-50 0 0 95 0 95 60 0 c53
0 60 2 60 20 0 18 -7 20 -85 20 l-85 0 0 -255z"/>
<path d="M1546 1143 c-6 -19 -86 -472 -86 -485 0 -5 9 -8 19 -8 20 0 25 9 36
73 6 37 6 37 55 37 49 0 49 0 55 -37 4 -21 9 -46 12 -55 5 -20 43 -25 43 -5 0
6 -19 121 -42 255 -40 230 -44 242 -65 242 -12 0 -24 -8 -27 -17z m47 -210
c10 -60 17 -114 17 -120 0 -8 -15 -13 -40 -13 -25 0 -40 5 -40 13 0 30 34 227
40 227 3 0 14 -48 23 -107z"/>
<path d="M1750 905 c0 -248 1 -255 20 -255 19 0 20 7 20 235 l0 235 60 0 61 0
-3 -92 -3 -93 -43 -3 c-29 -2 -42 -7 -39 -15 2 -7 24 -69 48 -139 39 -113 47
-128 67 -128 12 0 22 4 22 9 0 4 -18 57 -40 116 -22 60 -39 109 -38 110 2 1
17 7 33 12 l30 10 0 124 0 124 -97 3 -98 3 0 -256z"/>
<path d="M1278 473 c7 -3 16 -2 19 1 4 3 -2 6 -13 5 -11 0 -14 -3 -6 -6z"/>
</g>
</svg>
